<svg width="190" height="39" viewBox="0 0 190 39" fill="none" xmlns="http://www.w3.org/2000/svg">
<path d="M6.0117 21.9349V19.6514C12.6311 18.7242 19.3065 18.2752 25.988 18.3076C25.988 18.9139 25.988 19.5302 25.9286 20.1465C27.8277 19.2867 29.8236 18.6691 31.8709 18.3076C30.5661 14.8643 28.1884 11.9536 25.1037 10.0235C22.0189 8.09332 18.398 7.25055 14.7979 7.62483C11.1978 7.9991 7.81798 9.56967 5.17831 12.095C2.53863 14.6202 0.785353 17.9603 0.188175 21.6014L6.0117 21.9349Z" fill="#FDC305"/>
<path d="M26.9784 25.4813C25.8295 26.7745 25.6017 26.6937 25.6017 28.967C25.6017 29.8865 25.6017 33.9178 25.6017 38.2422C27.8723 36.7125 29.7362 34.6331 31.0271 32.1895C32.3181 29.746 32.9959 27.0143 33 24.2385C32.9869 23.1869 32.8809 22.1385 32.6831 21.1064C30.6312 22.3486 28.7183 23.8156 26.9784 25.4813Z" fill="#FDC305"/>
<path d="M6.29892 26.9867C6.29892 26.9867 2.54532 25.5318 1.15876 25.1377C0.779508 25.0158 0.392293 24.9212 0 24.8548C0.107354 27.7707 0.956315 30.608 2.4635 33.0879C3.97068 35.5679 6.08426 37.6053 8.59664 39L6.29892 26.9867Z" fill="#FDC305"/>
<path d="M26.0375 18.2975C26.0778 12.7189 25.6136 7.1484 24.651 1.65676C24.651 1.65676 24.5123 0.353381 23.7695 1.41427C23.1861 2.67535 22.7857 4.01637 22.581 5.39513C18.3638 5.11805 14.1305 5.23303 9.93367 5.73865C9.15126 3.02076 7.77461 1.75779 7.11104 2.01039C6.44748 2.26298 6.39796 5.35471 6.39796 5.35471L6.07113 19.6009C12.6882 18.6876 19.3603 18.252 26.0375 18.2975Z" fill="#F06351"/>
<path d="M12.2908 15.1452C12.2908 15.0542 13.2812 15.8322 13.6873 16.0747C14.0933 16.3172 14.2914 16.4991 14.2914 16.6708C14.2914 16.8426 14.024 17.0144 13.6675 17.0144C13.3109 17.0144 12.7662 16.8931 12.6771 16.7416H13.8953C13.2918 16.2863 12.7521 15.7492 12.2908 15.1452Z" fill="black"/>
<path d="M19.699 15.2563L18.6194 16.6001C18.6194 16.6607 18.4511 16.9537 18.7977 16.9032C19.2079 16.8408 19.6122 16.7428 20.006 16.6102C20.1149 16.6102 20.0753 16.4182 19.8971 16.4384C19.7188 16.4587 19.2137 16.489 18.9067 16.5496L19.7386 15.2765C19.7386 15.2765 19.8079 15.1452 19.699 15.2563Z" fill="black"/>
<path d="M16.5891 21.4095C17.0482 21.2031 17.4277 20.848 17.6687 20.3991C17.946 19.7424 17.6687 19.4797 17.2329 19.3887C16.6366 19.2777 16.0211 19.4004 15.5096 19.7323C15.1233 20.096 15.1729 20.4597 15.4601 20.7426C15.808 21.0116 16.1873 21.2356 16.5891 21.4095Z" fill="black"/>
<path d="M16.193 22.6724C16.082 22.9033 15.9271 23.1094 15.7374 23.2786C15.4553 23.5102 15.1086 23.6446 14.747 23.6626C14.2259 23.705 13.7077 23.5504 13.2911 23.2281C13.0953 23.1077 12.9183 22.9578 12.7662 22.7836C12.6667 22.6715 12.5452 22.582 12.4097 22.5209C12.4097 22.5209 13.1525 26.6634 14.955 27.3201C16.7575 27.9769 17.0744 26.5624 17.1339 26.1784C17.1934 25.0318 16.9102 23.8937 16.3217 22.9149C16.3019 22.6017 16.292 22.8038 16.193 22.6724Z" fill="#F06351"/>
<path d="M14.5687 23.8242C14.1085 23.7583 13.6664 23.597 13.2695 23.3503C12.8727 23.1035 12.5295 22.7766 12.2611 22.3895C12.2479 22.3764 12.2375 22.3606 12.2303 22.3433C12.2232 22.3259 12.2195 22.3073 12.2195 22.2885C12.2195 22.2697 12.2232 22.251 12.2303 22.2337C12.2375 22.2163 12.2479 22.2006 12.2611 22.1875C12.274 22.174 12.2894 22.1633 12.3064 22.156C12.3234 22.1487 12.3417 22.145 12.3601 22.145C12.3786 22.145 12.3969 22.1487 12.4139 22.156C12.4309 22.1633 12.4463 22.174 12.4592 22.1875C12.9591 22.8889 13.71 23.3608 14.5489 23.5009C14.8774 23.4757 15.1952 23.3709 15.476 23.1952C15.7568 23.0194 15.9924 22.7779 16.1633 22.4906L16.3019 22.2986L16.401 22.5108C16.401 22.5108 16.7674 23.2787 17.3914 23.3191C18.0153 23.3595 18.4313 22.9048 18.9859 22.0258C18.9988 22.0123 19.0142 22.0017 19.0312 21.9944C19.0482 21.9871 19.0665 21.9833 19.0849 21.9833C19.1034 21.9833 19.1216 21.9871 19.1386 21.9944C19.1557 22.0017 19.1711 22.0123 19.184 22.0258C19.216 22.0466 19.2389 22.0792 19.2482 22.1168C19.2574 22.1544 19.2521 22.1941 19.2335 22.2279C18.5996 23.2382 17.9757 23.6828 17.3715 23.6424C17.1418 23.6083 16.9226 23.5215 16.7304 23.3885C16.5383 23.2555 16.3782 23.0797 16.2623 22.8745C16.0675 23.1518 15.8142 23.3811 15.5212 23.5455C15.2281 23.7098 14.9026 23.8051 14.5687 23.8242Z" fill="black"/>
<path d="M25.988 20.1162C24.2097 21.7567 22.5327 23.508 20.9667 25.36C19.4104 27.2051 17.6526 28.8627 15.7275 30.3007C15.5096 29.7652 14.1231 28.7751 14.1231 28.7751C14.1231 28.7751 11.0231 26.6129 8.9928 24.9154C7.89756 23.9731 6.86216 22.9607 5.89286 21.8843L3.91207 21.7732C6.77448 26.0224 10.9639 29.1565 15.7968 30.6645C16.6486 30.523 19.0354 28.7852 20.8181 27.3706C22.9167 25.5337 24.8827 23.5448 26.7011 21.4196C27.1988 20.8245 27.5818 20.1389 27.8301 19.3988C26.7407 19.7929 25.988 20.1162 25.988 20.1162Z" fill="#F06351"/>
<path d="M90.2645 27.5385C89.3695 26.2762 88.9253 24.7627 89 23.2308V16.8462C88.8916 15.2977 89.3081 13.7575 90.1855 12.4615C91.0548 11.4615 92.3983 11 94.374 11C96.3498 11 97.6143 11.4615 98.4045 12.3077C99.2626 13.3794 99.6846 14.7214 99.59 16.0769V17.6154H95.7175V15.8462C95.7488 15.3229 95.6681 14.799 95.4804 14.3077C95.3802 14.1094 95.2212 13.9448 95.024 13.8351C94.8269 13.7255 94.6005 13.6757 94.374 13.6923C93.8208 13.6923 93.4257 13.8462 93.2676 14.2308C93.0888 14.7773 93.0086 15.3499 93.0305 15.9231V24.1538C92.9888 24.71 93.0978 25.267 93.3466 25.7692C93.5047 26.1538 93.8998 26.3077 94.4531 26.3077C95.0063 26.3077 95.3224 26.1538 95.4804 25.7692C95.6601 25.2494 95.7405 24.7019 95.7175 24.1538V22.3077H99.59V23.8462C99.6704 25.2238 99.2508 26.5852 98.4045 27.6923C97.6143 28.6154 96.2707 29.0769 94.374 29.0769C92.4773 29 91.0548 28.5385 90.2645 27.5385Z" fill="#111111"/>
<path d="M104.253 11.2308H108.757L112.077 28.7692H108.441L107.809 25.0769H105.201L104.569 28.7692H100.854L104.253 11.2308ZM107.493 22.7692L106.545 15.9231L105.596 22.7692H107.493Z" fill="#111111"/>
<path d="M114.843 14.1538H112.156V11.2308H121.56V14.0769H118.873V28.7692H114.843V14.1538Z" fill="#111111"/>
<path d="M135.707 11.2308V13.0769H131.202V18.8462H134.837V20.6154H131.202V27.0769H135.707V28.8462H128.673V11.2308H135.707Z" fill="#111111"/>
<path d="M137.761 11.2308H139.5L144.637 22.8462V11.2308H146.692V28.7692H145.111L139.895 16.7692V28.7692H137.761V11.2308Z" fill="#111111"/>
<path d="M149.063 11.2308H156.017V13.0769H151.513V18.8462H155.148V20.6154H151.513V27.0769H156.017V28.8462H149.063V11.2308Z" fill="#111111"/>
<path d="M161.707 11.2308C163.137 11.1346 164.559 11.5144 165.738 12.3077C166.607 13 167.002 14.2308 167.002 15.8462C167.002 18.0769 166.291 19.4615 164.79 19.9231L167.318 28.6923H164.869L162.498 20.4615H160.522V28.6923H157.993V11.2308H161.707ZM161.549 18.7692C162.364 18.8346 163.176 18.6165 163.841 18.1538C164.315 17.7692 164.552 17 164.552 15.8462C164.574 15.273 164.494 14.7004 164.315 14.1538C164.137 13.7617 163.832 13.4373 163.446 13.2308C162.902 12.9893 162.304 12.8836 161.707 12.9231H160.601V18.6923H161.549V18.7692Z" fill="#111111"/>
<path d="M170.164 27.4615C169.342 26.1166 168.956 24.5617 169.057 23V17.1538C169.038 16.0391 169.17 14.9268 169.452 13.8462C169.717 13.0386 170.244 12.3367 170.954 11.8462C171.836 11.3377 172.854 11.0967 173.878 11.1538C175.538 11.1538 176.723 11.5385 177.434 12.3846C178.252 13.5019 178.644 14.8624 178.541 16.2308V16.8462H176.17V16.3077C176.173 15.6635 176.12 15.0201 176.012 14.3846C175.945 13.983 175.718 13.6235 175.379 13.3846C174.935 13.1008 174.408 12.9658 173.878 13C173.311 12.9647 172.75 13.1284 172.297 13.4615C172.111 13.614 171.959 13.8018 171.851 14.0134C171.742 14.2251 171.679 14.4561 171.665 14.6923C171.561 15.38 171.508 16.0741 171.507 16.7692V23.3077C171.449 24.3038 171.61 25.3006 171.981 26.2308C172.297 26.8462 172.93 27.0769 173.878 27.0769C174.252 27.1223 174.632 27.0589 174.97 26.8947C175.307 26.7304 175.587 26.4727 175.775 26.1538C176.192 25.1811 176.381 24.1299 176.328 23.0769V21.8462H174.036V20.0769H178.62V28.7692H177.039L176.802 26.7692C176.595 27.4395 176.163 28.0231 175.576 28.4273C174.989 28.8315 174.28 29.0331 173.562 29C172.909 29.0374 172.256 28.9164 171.663 28.6479C171.07 28.3794 170.555 27.9717 170.164 27.4615Z" fill="#111111"/>
<path d="M183.678 22.6154L179.805 11.3077H182.176L184.942 19.7692L187.629 11.3077H190L186.128 22.6154V28.7692H183.757V22.6154H183.678Z" fill="#111111"/>
</svg>
