<svg xmlns="http://www.w3.org/2000/svg" width="71" height="50" fill="none"><ellipse cx="34.97" cy="25" fill="#68B738" rx="26.49" ry="25"/><path fill="#000" d="M64.23 13.87c.6-.92 1.4-1.7 2.35-2.3.52-.34.83-.34 1.15.3.41.95.78 1.95.47 3a1.1 1.1 0 0 0 .2 1.04c.32.4.58.8.84 1.15a3.06 3.06 0 0 1 .47 3.1 2.6 2.6 0 0 0-.1 1.54c.1.5.1 1 0 1.5-.05.36-.2.71-.46 1-.25.28-.58.49-.95.59-.67.12-1.27.48-1.67 1a.54.54 0 0 1-.2.18.57.57 0 0 1-.27.07c-.63.1-2.2-1.25-2.2-1.85v-.3c.06-1.8-.05-1.94-1.77-2.7a2.3 2.3 0 0 1-.94-.59c-.31-.4-.73-.35-1.2-.2-.47.15-.73.45-.68.95.16 1.2.21 2.42.16 3.64 0 .14.04.27.1.4 1.62 2.24 2.25 4.88 3.03 7.43.63 1.94 1.77 2.99 3.86 3.14.34.02.67.07 1 .15.42.06.82.25 1.14.53.31.29.53.66.63 1.06.36 1.05.15 1.3-.94 1.3h-3.4c-.43.02-.86-.12-1.2-.4a6.18 6.18 0 0 0-1.77-1 3.77 3.77 0 0 1-1.77-1.3 14.5 14.5 0 0 0-2.09-2.24c-1.46-1.44-3.02-2.84-4.38-4.34a5.55 5.55 0 0 1-1.67-3.78c0-.45-.1-.65-.63-.45-.15.1-.33.14-.52.15-1.46 0-2.19.84-2.71 2.09-.47 1.05-1.1 2.04-1.67 3.1a5 5 0 0 0-.52 2.09c0 1.2.31 1.6 1.46 1.99.73.25 1.4.5 1.77 1.2.42.8.32 1-.57 1.04h-3.55c-.2.02-.4-.02-.59-.12a.95.95 0 0 1-.4-.43l-.94-1.5a2.94 2.94 0 0 1-.36-2.68c.22-.87.24-1.77.05-2.65a4.02 4.02 0 0 1 .89-3.49c.3-.34.3-.5-.21-.6a26.94 26.94 0 0 1-6.21-2.09c-1.67-.6-1.98-.5-2.45 1.15-.42 1.4-.84 2.8-1.15 4.24-.37 1.6.05 3.09.57 4.58.21.6.84.55 1.3.7 1.05.3 1.94.7 2.35 1.75.37.8.32.9-.57.9-.89 0-1.77-.06-2.71 0-.8 0-1.57-.24-2.2-.7-2.5-1.6-3.23-4.04-3.44-6.68-.1-1.65-1.04-2.95-2.14-4.2-.2-.24-.41-.34-.73-.14a23.66 23.66 0 0 1-3.5 1.5 13.93 13.93 0 0 0-6.36 4.38c-.6.74-1 1.61-1.14 2.54-.16.9.1 1.3 1.04 1.55.94.25 1.4.75 1.51 1.7.05.4-.1.6-.52.6H12.9a.89.89 0 0 1-.68-.4c-.66-.78-1-1.75-1-2.75-.02-1.72.14-3.44.48-5.13.07-.51.26-1 .57-1.41.31-.42.72-.76 1.2-.99 3.08-1.4 4.7-4.04 6.16-6.78.3-.55.05-.65-.47-.6-1.46.2-2.85.75-4.02 1.6a36.45 36.45 0 0 0-4.33 3.54 8.87 8.87 0 0 1-5.37 2.44c-3.81.2-5.59-1.84-5.43-5.13.03-1.12.48-2.2 1.25-3.04a2.32 2.32 0 0 1 2.35-.75c.78.2.99.6.68 1.34-.16.3-.37.55-.52.85-.23.3-.4.64-.53 1-.57 1.5.21 2.54 1.83 2.7 1.72.14 3.13-.56 4.43-1.55a22.9 22.9 0 0 0 4.18-4.14c.9-1.13 2.02-2.07 3.32-2.77a11.2 11.2 0 0 1 4.19-1.27c1.2-.15 2.24-.65 3.4-.95 2.14-.62 4.37-.93 6.62-.9a7.06 7.06 0 0 0 3.02-.54c2.56-1 5.22-1 7.88-.5 2.09.4 4.17.9 6.2 1.4 1.22.2 2.46.18 3.66-.1a36.9 36.9 0 0 1 7-1 9.85 9.85 0 0 1 4.48.84c1.04.45 1.04.45.78 1.4Z"/></svg>